<svg xmlns="http://www.w3.org/2000/svg" width="617.763" height="1144" viewBox="0 0 617.763 1144">
  <g id="ladder-white" transform="translate(2.381 32)">
    <path id="Path_1" data-name="Path 1" d="M10,0H423L413,57H0Z" transform="translate(190 -30)" fill="none" stroke="#fff" stroke-width="4"/>
    <path id="Path_2" data-name="Path 2" d="M10,0H423L413,57H0Z" transform="translate(180 27)" fill="none" stroke="#fff" stroke-width="4"/>
    <path id="Path_1-2" data-name="Path 1" d="M10,0H423L413,57H0Z" transform="translate(110 426)" fill="none" stroke="#fff" stroke-width="4"/>
    <path id="Path_2-2" data-name="Path 2" d="M10,0H423L413,57H0Z" transform="translate(100 483)" fill="none" stroke="#fff" stroke-width="4"/>
    <path id="Path_1-3" data-name="Path 1" d="M10,0H423L413,57H0Z" transform="translate(150 198)" fill="none" stroke="#fff" stroke-width="4"/>
    <path id="Path_2-3" data-name="Path 2" d="M10,0H423L413,57H0Z" transform="translate(140 255)" fill="none" stroke="#fff" stroke-width="4"/>
    <path id="Path_1-4" data-name="Path 1" d="M10,0H423L413,57H0Z" transform="translate(70 654)" fill="none" stroke="#fff" stroke-width="4"/>
    <path id="Path_2-4" data-name="Path 2" d="M10,0H423L413,57H0Z" transform="translate(60 711)" fill="none" stroke="#fff" stroke-width="4"/>
    <path id="Path_1-5" data-name="Path 1" d="M10,0H423L413,57H0Z" transform="translate(30 882)" fill="none" stroke="#fff" stroke-width="4"/>
    <path id="Path_2-5" data-name="Path 2" d="M10,0H423L413,57H0Z" transform="translate(20 939)" fill="none" stroke="#fff" stroke-width="4"/>
    <path id="Path_1-6" data-name="Path 1" d="M10,0H423L413,57H0Z" transform="translate(170 84)" fill="none" stroke="#fff" stroke-width="4"/>
    <path id="Path_2-6" data-name="Path 2" d="M10,0H423L413,57H0Z" transform="translate(160 141)" fill="none" stroke="#fff" stroke-width="4"/>
    <path id="Path_1-7" data-name="Path 1" d="M10,0H423L413,57H0Z" transform="translate(90 540)" fill="none" stroke="#fff" stroke-width="4"/>
    <path id="Path_2-7" data-name="Path 2" d="M10,0H423L413,57H0Z" transform="translate(80 597)" fill="none" stroke="#fff" stroke-width="4"/>
    <path id="Path_1-8" data-name="Path 1" d="M10,0H423L413,57H0Z" transform="translate(130 312)" fill="none" stroke="#fff" stroke-width="4"/>
    <path id="Path_2-8" data-name="Path 2" d="M10,0H423L413,57H0Z" transform="translate(120 369)" fill="none" stroke="#fff" stroke-width="4"/>
    <path id="Path_1-9" data-name="Path 1" d="M10,0H423L413,57H0Z" transform="translate(50 768)" fill="none" stroke="#fff" stroke-width="4"/>
    <path id="Path_2-9" data-name="Path 2" d="M10,0H423L413,57H0Z" transform="translate(40 825)" fill="none" stroke="#fff" stroke-width="4"/>
    <path id="Path_1-10" data-name="Path 1" d="M10,0H423L413,57H0Z" transform="translate(10 996)" fill="none" stroke="#fff" stroke-width="4"/>
    <path id="Path_2-10" data-name="Path 2" d="M10,0H423L413,57H0Z" transform="translate(0 1053)" fill="none" stroke="#fff" stroke-width="4"/>
  </g>
</svg>
