<svg xmlns="http://www.w3.org/2000/svg" viewBox="0 0 760 40" width="760" height="40"><g fill="#000000"><path d="M0 8h40v4H0zM10 17h30v4H10zM20 25h20v4H20z"/></g><g fill="#000000"><path d="M40.257 7.995l39.507.205-.02 3.95-39.507-.204z"/><path d="M50 17h30v4H50z" fill-opacity=".99279"/><path d="M59.908 24.852l20.061.205-.021 3.991-20.06-.204z"/></g><g fill="#000000"><path d="M81.17 7.979l37.757.93-.093 3.775-37.758-.93z"/><path d="M90 17h30v4H90z" fill-opacity=".967199"/><path d="M99.583 24.328l20.275.93-.094 3.962-20.274-.93z"/></g><g fill="#000000"><path d="M123.035 7.945l34.182 2.414-.243 3.417-34.182-2.414z"/><path d="M130 17h30v4h-30z" fill-opacity=".914895"/><path d="M138.919 23.256l20.712 2.414-.243 3.902-20.712-2.414z"/></g><g fill="#000000"><path d="M166.247 7.888l28.025 4.968-.5 2.799-28.025-4.968z"/><path d="M170 17h30v4h-30z" fill-opacity=".824832"/><path d="M177.775 21.41l21.465 4.968-.499 3.799-21.465-4.968z"/></g><g fill="#000000"><path d="M210.954 7.803l19.003 8.711-.876 1.895-19.003-8.711z"/><path d="M210 17h30v4h-30z" fill-opacity=".69286"/><path d="M216.099 18.705l22.569 8.712-.876 3.647-22.569-8.711z"/></g><g fill="#000000"><path d="M256.307 7.706l8.741 12.969-1.304.867-8.741-12.969z"/><path d="M250 17h30v4h-30z" fill-opacity=".542748"/><path d="M254.193 15.629l23.824 12.969-1.305 3.475-23.823-12.969z"/></g><g fill="#000000"><path d="M301.055 7.621l-.361 16.745-1.684-.046.361-16.744z"/><path d="M290 17h30v4h-30z" fill-opacity=".409611"/><path d="M292.502 12.9l24.937 16.745-1.684 3.322-24.937-16.745z"/></g><g fill="#000000"><path d="M344.794 7.554l-7.528 19.719-1.983-.765 7.528-19.718z"/><path d="M330 17h30v4h-30z" fill-opacity=".304765"/><path d="M331.171 10.751l25.814 19.719-1.984 3.202-25.813-19.719z"/></g><g fill="#000000"><path d="M387.659 7.502l-13.02 21.997-2.212-1.315 13.02-21.996z"/><path d="M370 17h30v4h-30z" fill-opacity=".224439"/><path d="M370.15 9.105l26.486 21.997-2.212 3.11-26.486-21.997z"/></g><g fill="#000000"><path d="M429.855 7.463l-17.229 23.743-2.388-1.737 17.229-23.742z"/><path d="M410 17h30v4h-30z" fill-opacity=".162868"/><path d="M409.368 7.843l27.001 23.744-2.388 3.039-27-23.744z"/></g><g fill="#000000"><path d="M471.543 7.432l-20.465 25.086-2.523-2.061L469.02 5.372z"/><path d="M450 17h30v4h-30z" fill-opacity=".115534"/><path d="M448.767 6.873l27.397 25.086-2.523 2.985-27.396-25.086z"/></g><g fill="#000000"><path d="M512.838 7.409l-22.947 26.116-2.626-2.31L510.212 5.1z"/><path d="M490 17h30v4h-30z" fill-opacity=".079224"/><path d="M488.306 6.129l27.701 26.116-2.627 2.943-27.7-26.116z"/></g><g fill="#000000"><path d="M553.821 7.391l-24.832 26.898-2.704-2.499 24.831-26.897z"/><path d="M530 17h30v4h-30z" fill-opacity=".051664"/><path d="M527.956 5.564l27.931 26.898-2.706 2.911-27.93-26.898z"/></g><g fill="#000000"><path d="M594.55 7.378l-26.229 27.478-2.763-2.639L591.787 4.74z"/><path d="M570 17h30v4h-30z" fill-opacity=".031209"/><path d="M567.696 5.145l28.102 27.477-2.764 2.888-28.101-27.478z"/></g><g fill="#000000"><path d="M635.07 7.369L607.844 35.26l-2.804-2.739 27.225-27.89z"/><path d="M610 17h30v4h-30z" fill-opacity=".016641"/><path d="M607.511 4.846l28.224 27.891-2.805 2.871-28.223-27.891z"/></g><g fill="#000000"><path d="M675.412 7.363L647.53 35.526l-2.832-2.805L672.58 4.559z"/><path d="M650 17h30v4h-30z" fill-opacity=".007037"/><path d="M647.389 4.649l28.305 28.164-2.833 2.86-28.304-28.164z"/></g><g fill="#000000"><path d="M715.603 7.359l-28.248 28.315-2.847-2.841 28.248-28.314z"/><path d="M690 17h30v4h-30z" fill-opacity=".001679"/><path d="M687.321 4.539l28.349 28.316-2.848 2.854-28.348-28.316z"/></g><g fill="#000000"><path d="M755.663 7.358L727.3 35.721l-2.852-2.853 28.363-28.362z"/><path d="M727.3 4.505l28.363 28.363-2.853 2.852-28.362-28.363z"/></g></svg>